<svg width="2251" height="663" viewBox="0 0 2251 663" fill="none" xmlns="http://www.w3.org/2000/svg">
<g clip-path="url(#clip0)">
<circle cx="331.5" cy="331.5" r="239.5" fill="#5F539B"/>
<g clip-path="url(#clip1)">
<path d="M228.914 461.145H430.874L228.914 258.078V461.145Z" fill="white" fill-opacity="0.6"/>
<path d="M275.759 198.873H430.688L275.759 353.802V198.873Z" fill="white" fill-opacity="0.6"/>
<path d="M406.667 331.164L275.808 462.024L275.482 199.98L406.667 331.164Z" fill="white" fill-opacity="0.6"/>
<path d="M228.914 198.873H430.874L228.914 401.94V198.873Z" fill="white" fill-opacity="0.6"/>
</g>
<path d="M833.312 432V391.5H726.392V342.576H831.044V302.076H726.392V256.392H833.312V215.892H680.384V432H833.312ZM953.195 432L1016.05 275.508H971.663L930.839 384.372L890.015 275.508H845.951L908.807 432H953.195ZM1181.19 432V321.516C1181.19 291.06 1164.67 271.62 1130.32 271.62C1104.73 271.62 1085.61 283.932 1075.57 295.92V275.508H1034.42V432H1075.57V326.7C1082.37 317.304 1095.01 308.232 1111.21 308.232C1128.7 308.232 1140.04 315.684 1140.04 337.392V432H1181.19ZM1274.54 435.888C1291.71 435.888 1302.72 431.352 1308.88 425.844L1300.13 394.74C1297.86 397.008 1292.03 399.276 1285.88 399.276C1276.8 399.276 1271.62 391.824 1271.62 382.104V311.472H1303.37V275.508H1271.62V232.74H1230.15V275.508H1204.23V311.472H1230.15V393.12C1230.15 420.984 1245.7 435.888 1274.54 435.888ZM1409.29 435.888C1467.61 435.888 1495.79 406.08 1495.79 366.552C1495.79 285.876 1371.7 308.88 1371.7 274.536C1371.7 261.576 1382.72 252.828 1402.48 252.828C1424.51 252.828 1447.84 260.28 1465.34 276.48L1490.93 242.784C1469.55 223.02 1441.04 212.652 1406.69 212.652C1355.83 212.652 1324.72 242.46 1324.72 278.424C1324.72 359.748 1449.14 333.504 1449.14 371.736C1449.14 384.048 1436.83 395.712 1411.55 395.712C1381.75 395.712 1358.09 382.428 1342.87 366.552L1317.92 401.544C1338.01 421.956 1367.81 435.888 1409.29 435.888ZM1566.95 432V328.644C1573.75 318.6 1591.89 310.824 1605.5 310.824C1610.04 310.824 1613.93 311.148 1616.84 311.796V271.62C1597.4 271.62 1577.96 282.96 1566.95 296.892V275.508H1525.8V432H1566.95ZM1715.45 435.888C1747.53 435.888 1766.97 421.956 1777.34 407.376L1750.44 382.428C1742.99 392.796 1731.65 399.276 1717.4 399.276C1692.45 399.276 1674.95 380.808 1674.95 353.592C1674.95 326.376 1692.45 308.232 1717.4 308.232C1731.65 308.232 1742.99 314.064 1750.44 325.08L1777.34 299.808C1766.97 285.552 1747.53 271.62 1715.45 271.62C1667.18 271.62 1632.51 305.64 1632.51 353.592C1632.51 401.868 1667.18 435.888 1715.45 435.888Z" fill="#282838"/>
<path d="M1825.3 435.564C1839.55 435.564 1851.54 423.576 1851.54 409.32C1851.54 395.064 1839.55 383.076 1825.3 383.076C1811.04 383.076 1799.05 395.064 1799.05 409.32C1799.05 423.576 1811.04 435.564 1825.3 435.564ZM1907.55 258.66C1921.15 258.66 1932.17 247.644 1932.17 234.036C1932.17 220.428 1921.15 209.736 1907.55 209.736C1894.26 209.736 1882.92 220.428 1882.92 234.036C1882.92 247.644 1894.26 258.66 1907.55 258.66ZM1928.28 432V275.508H1887.13V432H1928.28ZM2041.66 435.888C2093.5 435.888 2124.6 398.304 2124.6 353.592C2124.6 309.204 2093.5 271.62 2041.66 271.62C1990.14 271.62 1959.04 309.204 1959.04 353.592C1959.04 398.304 1990.14 435.888 2041.66 435.888ZM2041.66 399.276C2016.06 399.276 2001.81 378.216 2001.81 353.592C2001.81 329.292 2016.06 308.232 2041.66 308.232C2067.26 308.232 2081.84 329.292 2081.84 353.592C2081.84 378.216 2067.26 399.276 2041.66 399.276Z" fill="#D2D2D7"/>
</g>
<defs>
<clipPath id="clip0">
<rect width="2251" height="663" fill="white"/>
</clipPath>
<clipPath id="clip1">
<rect width="215.793" height="272.232" fill="white" transform="translate(223.194 195)"/>
</clipPath>
</defs>
</svg>
